G04 Layer_Color=32896*
%FSLAX44Y44*%
%MOMM*%
G71*
G01*
G75*
%ADD15C,0.1000*%
D15*
X217000Y-191243D02*
G03*
X227000Y-181243I0J10000D01*
G01*
X165184Y-243059D02*
G03*
X175184Y-233059I0J10000D01*
G01*
X215184Y-191243D02*
G03*
X175184Y-231243I0J-40000D01*
G01*
X-203839Y-76839D02*
G03*
X-195000Y-55500I-21339J21339D01*
G01*
X-218161Y-91161D02*
G03*
X-227000Y-112500I21339J-21339D01*
G01*
X82750Y220000D02*
G03*
X61411Y211161I0J-30178D01*
G01*
X32750Y195000D02*
G03*
X54089Y203839I0J30178D01*
G01*
X227000Y126448D02*
G03*
X209040Y169808I-61321J0D01*
G01*
X176808Y202039D02*
G03*
X133448Y220000I-43361J-43361D01*
G01*
X177000Y91500D02*
G03*
X197000Y71500I20000J0D01*
G01*
Y111500D02*
G03*
X177000Y91500I0J-20000D01*
G01*
X227000Y61500D02*
G03*
X217000Y71500I-10000J0D01*
G01*
Y111500D02*
G03*
X227000Y121500I0J10000D01*
G01*
X0Y195000D02*
G03*
X-195000Y0I0J-195000D01*
G01*
X142500D02*
G03*
X142500Y0I-142500J0D01*
G01*
X-164598Y-259549D02*
G03*
X-141060Y-269299I23539J23539D01*
G01*
X-227000Y-173448D02*
G03*
X-210242Y-213905I57215J0D01*
G01*
X-132900Y-269299D02*
G03*
X-109362Y-259549I0J33289D01*
G01*
X-79018Y-243057D02*
G03*
X-102665Y-252852I0J-33441D01*
G01*
X215184Y-191243D02*
X217000D01*
X175184Y-233058D02*
X175184Y-231243D01*
X-218161Y-91161D02*
X-203839Y-76839D01*
X227000Y-181243D02*
Y61500D01*
X82750Y220000D02*
X133448D01*
X0Y195000D02*
X32750D01*
X54089Y203839D02*
X61411Y211161D01*
X-79018Y-243057D02*
X165184Y-243058D01*
X176808Y202039D02*
X209040Y169808D01*
X197000Y111500D02*
X217000D01*
X197000Y71500D02*
X217000D01*
X227000Y121500D02*
Y126448D01*
X-195000Y-55500D02*
Y0D01*
X-227000Y-173448D02*
Y-112500D01*
X-210242Y-213905D02*
X-164598Y-259549D01*
X-109362Y-259549D02*
X-102665Y-252852D01*
X-141060Y-269299D02*
X-132900D01*
M02*
