G04 Layer_Color=32896*
%FSLAX44Y44*%
%MOMM*%
G71*
G01*
G75*
%ADD13C,0.1000*%
D13*
X-279000Y500D02*
G03*
X-265000Y-13500I14000J0D01*
G01*
X-232448Y-21408D02*
G03*
X-251540Y-13500I-19092J-19092D01*
G01*
X-203683Y-50173D02*
G03*
X-186005Y-57496I17678J17678D01*
G01*
X-265000Y50000D02*
G03*
X-279000Y36000I0J-14000D01*
G01*
X-9900Y-68395D02*
G03*
X9900Y-68395I9900J9900D01*
G01*
X279001Y36000D02*
G03*
X265001Y50000I-14000J0D01*
G01*
X186006Y-57496D02*
G03*
X203684Y-50173I0J25000D01*
G01*
X251541Y-13500D02*
G03*
X232449Y-21408I0J-27000D01*
G01*
X265001Y-13500D02*
G03*
X279001Y500I0J14000D01*
G01*
X-15818Y-62481D02*
G03*
X-27839Y-57502I-12021J-12021D01*
G01*
X27839D02*
G03*
X15818Y-62481I0J-17000D01*
G01*
X-279000Y500D02*
Y36000D01*
X-265000Y-13500D02*
X-251540D01*
X-232448Y-21408D02*
X-203683Y-50173D01*
X-265000Y50000D02*
X265001D01*
X-186005Y-57496D02*
X-93003D01*
X-27839D01*
X203684Y-50173D02*
X232449Y-21408D01*
X251541Y-13500D02*
X265001D01*
X279001Y500D02*
Y36000D01*
X-15818Y-62481D02*
X-9900Y-68400D01*
X9900D02*
X15818Y-62481D01*
X27839Y-57496D02*
X186006D01*
M02*
